<svg id="kapitalbank-hor" xmlns="http://www.w3.org/2000/svg" xmlns:xlink="http://www.w3.org/1999/xlink" width="366.988" height="74.024" viewBox="0 0 366.988 74.024">
  <defs>
    <linearGradient id="linear-gradient" x1="-0.001" y1="0.499" x2="1.001" y2="0.499" gradientUnits="objectBoundingBox">
      <stop offset="0" stop-color="#790e2e"/>
      <stop offset="0.076" stop-color="#8a132f"/>
      <stop offset="0.258" stop-color="#ae1d31"/>
      <stop offset="0.442" stop-color="#c92633"/>
      <stop offset="0.627" stop-color="#dd2b34"/>
      <stop offset="0.812" stop-color="#e92f35"/>
      <stop offset="1" stop-color="#ed3035"/>
    </linearGradient>
  </defs>
  <g id="Group_9463" data-name="Group 9463">
    <path id="Path_62181" data-name="Path 62181" d="M.2,0,32.424,32.224,64.464,0Z" transform="translate(0.168)" fill-rule="evenodd" fill="url(#linear-gradient)"/>
    <path id="Path_62182" data-name="Path 62182" d="M0,49.44v.368H64.449V49.44L32.224,17.4Z" transform="translate(0 14.64)" fill="#790e2e" fill-rule="evenodd"/>
    <path id="Path_62183" data-name="Path 62183" d="M.368,0H0V64.08L32.408,32.04Z" fill="#b01d2d" fill-rule="evenodd"/>
    <path id="Path_62184" data-name="Path 62184" d="M49.266,23.32,63.26,7.3h9.391L56.631,24.793,73.388,45.417H63.628L50.186,28.292l-.921.921v16.2H41.9V7.3h7.366Z" transform="translate(35.254 6.142)" fill="#9c0631"/>
    <path id="Path_62185" data-name="Path 62185" d="M79.255,14.752h7V39.611h-7v-3.13a8.853,8.853,0,0,1-7.55,4.051C64.156,40.532,59,34.639,59,27.274S63.972,14.2,71.337,14.2a9.024,9.024,0,0,1,7.918,4.051ZM66.181,27.09a6.816,6.816,0,1,0,13.626,0,6.816,6.816,0,1,0-13.626,0Z" transform="translate(49.642 11.948)" fill="#9c0631"/>
    <path id="Path_62186" data-name="Path 62186" d="M82.8,52.853h-7V14.921h7v3.13A9.387,9.387,0,0,1,90.9,14c7.366,0,12.153,5.708,12.153,13.074,0,7.55-4.972,13.258-12.337,13.258A9.6,9.6,0,0,1,82.8,36.281Zm-.737-25.6a6.816,6.816,0,1,0,13.626,0,6.816,6.816,0,1,0-13.626,0Z" transform="translate(63.777 11.779)" fill="#9c0631"/>
    <path id="Path_62187" data-name="Path 62187" d="M95.935,6.6a4.283,4.283,0,0,1,4.235,4.235,4.235,4.235,0,0,1-8.47,0A4.283,4.283,0,0,1,95.935,6.6Zm3.5,14.547V46.006h-7V21.147Z" transform="translate(77.155 5.553)" fill="#9c0631"/>
    <path id="Path_62188" data-name="Path 62188" d="M108.259,24.447V43.229h-7V24.447H98.5V18.555h2.762V9.9h7v8.47h4.788v5.892h-4.788Z" transform="translate(82.877 8.33)" fill="#9c0631"/>
    <path id="Path_62189" data-name="Path 62189" d="M127.255,14.752h7V39.611h-7v-3.13a8.853,8.853,0,0,1-7.55,4.051c-7.55,0-12.706-5.892-12.706-13.258S111.972,14.2,119.337,14.2a9.024,9.024,0,0,1,7.918,4.051ZM114.181,27.09a6.839,6.839,0,0,0,6.813,7,6.727,6.727,0,0,0,6.813-7,6.727,6.727,0,0,0-6.813-7A6.839,6.839,0,0,0,114.181,27.09Z" transform="translate(90.028 11.948)" fill="#9c0631"/>
    <path id="Path_62190" data-name="Path 62190" d="M131,4.7V47.6h-7V4.7Z" transform="translate(104.332 3.955)" fill="#9c0631"/>
    <path id="Path_62191" data-name="Path 62191" d="M145.807,7.3c2.026,0,6.261,0,9.391,2.394a9.763,9.763,0,0,1,3.5,7.918,8.345,8.345,0,0,1-4.235,7.55,8.341,8.341,0,0,1,4.972,2.394,10.179,10.179,0,0,1,2.762,7.181,9.922,9.922,0,0,1-3.314,7.734c-2.946,2.578-6.261,3.13-9.575,3.13H136.6V7.3Zm-2.026,15.836h2.026c1.1,0,5.708-.184,5.708-4.972,0-3.5-2.762-4.788-5.708-4.788H143.6v9.759Zm0,16.2h3.13a9.364,9.364,0,0,0,5.156-1.1,5,5,0,0,0,2.394-4.419A4.564,4.564,0,0,0,151.7,29.4a12.535,12.535,0,0,0-5.156-.737h-2.762Z" transform="translate(114.933 6.142)" fill="#9c0631"/>
    <path id="Path_62192" data-name="Path 62192" d="M172.455,14.752h7V39.611h-7v-3.13a8.853,8.853,0,0,1-7.55,4.051c-7.55,0-12.706-5.892-12.706-13.258S157.172,14.2,164.537,14.2a9.024,9.024,0,0,1,7.918,4.051ZM159.381,27.09a6.816,6.816,0,1,0,13.626,0,6.816,6.816,0,1,0-13.626,0Z" transform="translate(128.059 11.948)" fill="#9c0631"/>
    <path id="Path_62193" data-name="Path 62193" d="M169.2,14.921h7v3.13A9.125,9.125,0,0,1,183.931,14c2.21,0,5.34.552,7.366,2.946a10.756,10.756,0,0,1,2.026,7V39.779h-7V26.337c0-1.289,0-3.5-1.289-4.788a4.764,4.764,0,0,0-3.315-1.289,4.369,4.369,0,0,0-4.235,2.21,7.937,7.937,0,0,0-1.1,4.788V39.779h-7V14.921Z" transform="translate(142.363 11.779)" fill="#9c0631"/>
    <path id="Path_62194" data-name="Path 62194" d="M192.1,4.7V31.768l9.207-9.023h9.023l-11.6,10.864,12.521,13.81h-9.207l-9.207-10.5-.737.737V47.6h-7V4.7Z" transform="translate(155.741 3.955)" fill="#9c0631"/>
    <g id="Group_9462" data-name="Group 9462" transform="translate(251.165 61.318)">
      <path id="Path_62195" data-name="Path 62195" d="M136.584,34.9H139.9a4.055,4.055,0,0,1,1.473.184,2.617,2.617,0,0,1,1.1.368,1.438,1.438,0,0,1,.737.737,2.336,2.336,0,0,1,.184,1.1,1.392,1.392,0,0,1-.184.737c0,.184-.184.368-.368.552l-.552.552c-.184.184-.368.184-.737.368h0c.737.184,1.289.368,1.473.737a3.515,3.515,0,0,1,.552,1.473A2.662,2.662,0,0,1,143.213,43a1.839,1.839,0,0,1-.737.921l-1.1.552a3.59,3.59,0,0,1-1.473.184h-3.5V34.9Zm3.13,3.867a1.557,1.557,0,0,0,1.1-.368,1.407,1.407,0,0,0,.368-.921.957.957,0,0,0-.368-.737c-.184-.184-.552-.184-1.1-.184h-1.1v2.21Zm.184,4.051c1.1,0,1.841-.368,1.841-1.289a1.407,1.407,0,0,0-.368-.921,2.661,2.661,0,0,0-1.289-.368h-1.289v2.578Z" transform="translate(-136.4 -31.954)" fill="#9c0631"/>
      <path id="Path_62196" data-name="Path 62196" d="M143.789,35.51a1.278,1.278,0,0,1-1.289-1.1,1.3,1.3,0,0,1,2.578,0,1.278,1.278,0,0,1-1.289,1.1Zm-1.1.737h2.21v9.575h-2.21Z" transform="translate(-131.268 -33.3)" fill="#9c0631"/>
      <path id="Path_62197" data-name="Path 62197" d="M151.356,44.475l-1.841-3.5h-1.1v3.5H146.2V34.9h3.5a4.054,4.054,0,0,1,1.473.184c.368.184.921.184,1.1.552a1.838,1.838,0,0,1,.737.921,3.469,3.469,0,0,1,.368,1.473,2.251,2.251,0,0,1-.552,1.657,8.008,8.008,0,0,1-1.289,1.1l2.21,3.867h-2.394Zm-2.946-5.156h1.1a2.661,2.661,0,0,0,1.289-.368c.368-.184.368-.552.368-1.1a1.082,1.082,0,0,0-.368-.921,2.661,2.661,0,0,0-1.289-.368h-1.1Z" transform="translate(-128.154 -31.954)" fill="#9c0631"/>
      <path id="Path_62198" data-name="Path 62198" d="M153.289,35.51A1.278,1.278,0,0,1,152,34.4a1.3,1.3,0,0,1,2.578,0,1.4,1.4,0,0,1-.368.737C153.841,35.326,153.657,35.51,153.289,35.51Zm-1.1.737h2.21v9.575h-2.21Z" transform="translate(-123.274 -33.3)" fill="#9c0631"/>
      <path id="Path_62199" data-name="Path 62199" d="M156,34.9h2.21l2.578,4.788.921,2.21h0c0-.552-.184-1.1-.184-1.657s-.184-1.289-.184-1.841V35.084h2.026v9.575h-2.21l-2.578-4.788-.921-2.026h0c0,.552.184,1.1.184,1.657s.184,1.289.184,1.841v3.314H156Z" transform="translate(-119.909 -31.954)" fill="#9c0631"/>
      <path id="Path_62200" data-name="Path 62200" d="M162.3,39.856a9.244,9.244,0,0,1,.368-2.21,7.465,7.465,0,0,1,.921-1.657,2.53,2.53,0,0,1,1.473-.921A5.448,5.448,0,0,1,166.9,34.7a5.376,5.376,0,0,1,1.657.368,3.3,3.3,0,0,1,1.289.921l-1.1,1.289c-.184-.184-.552-.368-.737-.552a2.394,2.394,0,0,0-1.841,0,2.541,2.541,0,0,0-.737.552,4.024,4.024,0,0,0-.552.921,2.73,2.73,0,0,0-.184,1.289,4.607,4.607,0,0,0,.552,2.394,1.8,1.8,0,0,0,1.657.737,2.336,2.336,0,0,0,1.1-.184,2.541,2.541,0,0,0,.737-.552l1.1,1.289c-.368.552-.921.737-1.289,1.1a5.377,5.377,0,0,1-1.657.368,6.542,6.542,0,0,1-1.841-.368,3.863,3.863,0,0,1-2.394-2.394A5.684,5.684,0,0,1,162.3,39.856Z" transform="translate(-114.608 -32.122)" fill="#9c0631"/>
      <path id="Path_62201" data-name="Path 62201" d="M169.689,35.51a1.278,1.278,0,0,1-1.289-1.1,1.3,1.3,0,0,1,2.578,0,1.278,1.278,0,0,1-1.289,1.1Zm-1.1.737h2.21v9.575h-2.21Z" transform="translate(-109.476 -33.3)" fill="#9c0631"/>
      <path id="Path_62202" data-name="Path 62202" d="M175.284,34.9H178.6a4.055,4.055,0,0,1,1.473.184,2.617,2.617,0,0,1,1.1.368,1.438,1.438,0,0,1,.737.737,2.335,2.335,0,0,1,.184,1.1,1.392,1.392,0,0,1-.184.737c0,.184-.184.368-.368.552l-.552.552c-.184.184-.368.184-.737.368h0c.737.184,1.289.368,1.473.737a3.516,3.516,0,0,1,.552,1.473A2.661,2.661,0,0,1,181.913,43a1.838,1.838,0,0,1-.737.921l-1.1.552a3.59,3.59,0,0,1-1.473.184h-3.5V34.9Zm3.13,3.867a1.557,1.557,0,0,0,1.1-.368,1.407,1.407,0,0,0,.368-.921.957.957,0,0,0-.368-.737c-.184-.184-.552-.184-1.1-.184h-1.1v2.21Zm.184,4.051c1.1,0,1.841-.368,1.841-1.289a1.407,1.407,0,0,0-.368-.921,2.661,2.661,0,0,0-1.289-.368h-1.289v2.578Z" transform="translate(-103.838 -31.954)" fill="#9c0631"/>
      <path id="Path_62203" data-name="Path 62203" d="M186.408,42.266h-2.946l-.552,2.21H180.7l2.946-9.575h2.578l2.946,9.575h-2.21Zm-.552-1.841-.184-.921c-.184-.552-.184-.921-.368-1.473s-.184-1.1-.368-1.473h0c-.184.552-.184,1.1-.368,1.657s-.184,1.1-.368,1.473l-.184.921h1.841Z" transform="translate(-99.127 -31.954)" fill="#9c0631"/>
      <path id="Path_62204" data-name="Path 62204" d="M187.2,34.9h2.21l2.578,4.788.921,2.21h0c0-.552-.184-1.1-.184-1.657s-.184-1.289-.184-1.841V35.084h2.026v9.575h-2.21l-2.578-4.788-.921-2.026h0c0,.552.184,1.1.184,1.657s.184,1.289.184,1.841v3.314H187.2Z" transform="translate(-93.658 -31.954)" fill="#9c0631"/>
      <path id="Path_62205" data-name="Path 62205" d="M193.8,34.9h2.21v3.867h0l2.946-3.867h2.394L198.4,38.767l3.5,5.708h-2.394l-2.394-4.051-1.1,1.473v2.578H193.8V34.9Z" transform="translate(-88.104 -31.954)" fill="#9c0631"/>
    </g>
  </g>
</svg>