<svg width="24" height="24" viewBox="0 0 24 24" fill="none" xmlns="http://www.w3.org/2000/svg">
  <path
    d="M11.9999 12.5105C11.7666 12.5105 11.5332 12.4443 11.3666 12.2786L2.3666 4.7561C1.93327 4.39158 1.89994 3.76195 2.23327 3.36429C2.59994 2.93349 3.23327 2.90035 3.63327 3.23173L11.9999 10.1908L20.3666 3.23173C20.7999 2.86721 21.4332 2.93349 21.7666 3.36429C22.1332 3.79509 22.0666 4.42472 21.6332 4.7561L12.6666 12.2786C12.4666 12.4111 12.2332 12.5105 11.9999 12.5105Z"
    fill="#2B9B2F"></path>
  <path
    d="M21 20H3C2.43333 20 2 19.5692 2 19.0058V3.99415C2 3.4308 2.43333 3 3 3H21C21.5667 3 22 3.4308 22 3.99415V19.0058C22 19.5692 21.5667 20 21 20ZM4 18.0117H20V4.9883H4V18.0117Z"
    fill="#2B9B2F"></path>
</svg>