<svg width="24" height="24" viewBox="0 0 24 24" fill="none" xmlns="http://www.w3.org/2000/svg">
  <g clip-path="url(#clip0_556_2017)">
    <path
      d="M13.3701 2.09383C10.9774 1.76469 8.54634 2.31238 6.52592 3.63579C4.5055 4.9592 3.03214 6.96894 2.3779 9.2939C1.72365 11.6189 1.9327 14.102 2.96646 16.2849C4.00021 18.4677 5.78885 20.2029 8.0021 21.1698C7.94224 20.4016 7.99718 19.6288 8.1651 18.8768C8.3501 18.0378 9.4611 13.4138 9.4611 13.4138C9.23986 12.9179 9.1293 12.3798 9.1371 11.8368C9.1371 10.3518 9.9941 9.24383 11.0601 9.24383C11.2516 9.24105 11.4415 9.27953 11.6168 9.35666C11.7921 9.4338 11.9487 9.54778 12.076 9.69086C12.2034 9.83393 12.2984 10.0027 12.3547 10.1858C12.4109 10.3689 12.4271 10.5619 12.4021 10.7518C12.4021 11.6518 11.8241 13.0138 11.5221 14.2918C11.4624 14.5262 11.4586 14.7713 11.511 15.0075C11.5635 15.2436 11.6706 15.4641 11.8239 15.6512C11.9771 15.8383 12.1722 15.9868 12.3933 16.0847C12.6145 16.1826 12.8555 16.2272 13.0971 16.2148C14.9951 16.2148 16.2671 13.7838 16.2671 10.9138C16.2671 8.71383 14.8101 7.06583 12.1241 7.06583C11.4815 7.04086 10.8405 7.14676 10.24 7.37709C9.63958 7.60742 9.09221 7.95738 8.63115 8.40572C8.17008 8.85406 7.80495 9.39144 7.55792 9.98521C7.31089 10.579 7.18711 11.2168 7.1941 11.8598C7.16546 12.5732 7.3956 13.2728 7.8421 13.8298C7.92553 13.8921 7.98645 13.9798 8.01567 14.0798C8.04489 14.1797 8.04083 14.2864 8.0041 14.3838C7.9581 14.5678 7.8421 15.0068 7.7961 15.1678C7.78653 15.2224 7.76427 15.274 7.73112 15.3184C7.69797 15.3629 7.65484 15.3989 7.60523 15.4236C7.55561 15.4483 7.50088 15.461 7.44545 15.4607C7.39002 15.4604 7.33544 15.4471 7.2861 15.4218C5.9021 14.8678 5.2501 13.3448 5.2501 11.6058C5.2501 8.75883 7.6341 5.35083 12.4041 5.35083C16.2001 5.35083 18.7241 8.12783 18.7241 11.0978C18.7241 15.0068 16.5471 17.9458 13.3301 17.9458C12.8493 17.9612 12.3724 17.8551 11.9434 17.6373C11.5145 17.4195 11.1474 17.0971 10.8761 16.6998C10.8761 16.6998 10.2981 19.0158 10.1841 19.4538C9.95139 20.2105 9.608 20.9286 9.1651 21.5848C10.0881 21.8648 11.0471 22.0048 12.0111 22.0008C13.3247 22.0019 14.6256 21.7438 15.8393 21.2414C17.053 20.739 18.1556 20.0021 19.0842 19.0729C20.0127 18.1438 20.7488 17.0406 21.2504 15.8265C21.7519 14.6125 22.0091 13.3114 22.0071 11.9978C22.0059 9.58283 21.1309 7.24983 19.5437 5.42961C17.9566 3.6094 15.7644 2.4249 13.3721 2.09483L13.3701 2.09383Z"
      fill="black"></path>
  </g>

  <defs>
    <clippath id="clip0_556_2017">
      <rect width="24" height="24" fill="white"></rect>
    </clippath>
  </defs>
</svg>